<?xml version="1.0" encoding="UTF-8"?>
<!DOCTYPE svg PUBLIC "-//W3C//DTD SVG 1.1//EN" "http://www.w3.org/Graphics/SVG/1.1/DTD/svg11.dtd">
<!-- Creator: CorelDRAW X7 -->
<svg xmlns="http://www.w3.org/2000/svg" xml:space="preserve" width="1in" height="1in" version="1.1" style="shape-rendering:geometricPrecision; text-rendering:geometricPrecision; image-rendering:optimizeQuality; fill-rule:evenodd; clip-rule:evenodd"
viewBox="0 0 1000 1000"
 xmlns:xlink="http://www.w3.org/1999/xlink">
 <defs>
  <style type="text/css">
   <![CDATA[
    .fil0 {fill:#56AA51}
   ]]>
  </style>
 </defs>
 <g id="Layer_x0020_1">
  <metadata id="CorelCorpID_0Corel-Layer"/>
  <g id="_898944256">
   <path class="fil0" d="M245 185c-1,9 6,12 13,23l35 40c2,2 2,4 6,7 8,9 8,9 14,18 8,14 21,12 33,12 14,0 256,-1 264,0l16 5 19 15c23,22 26,56 22,85 -2,10 -16,35 -24,41l-19 13c-18,9 -40,6 -63,6 -16,0 -71,-3 -81,2 0,5 1,6 4,9 4,4 19,24 26,30l46 54c7,7 4,5 23,5 9,0 20,1 29,0l23 -4c4,-1 6,-2 11,-4 0,0 2,0 2,0l16 -6c2,-2 -1,-1 2,-2 3,-2 3,-1 5,-2l9 -6c2,-1 3,-2 4,-3 3,-2 7,-3 9,-6 4,-2 3,-3 7,-6 5,-3 11,-9 15,-14 0,-1 0,-1 1,-2l2 -2c4,-5 12,-21 14,-22 3,-4 9,-17 10,-19 12,-20 18,-72 17,-96 -1,-10 -2,-29 -4,-38l-11 -32c-20,-48 -63,-88 -114,-100 -6,-1 -55,-2 -65,-2l-243 0c-11,0 -68,-2 -73,1z"/>
   <path class="fil0" d="M626 804c3,2 3,4 5,6 6,8 23,6 36,6 17,0 69,2 82,-1 1,-10 -7,-13 -17,-25l-38 -45c-3,-4 -6,-8 -9,-12 -50,-57 -97,-113 -145,-171 -5,-7 -5,-4 -9,-10l-6 -7c-2,-2 0,0 -3,-3 -6,-6 -11,-15 -14,-16 -3,-1 -17,-19 -24,-26l-37 -43c-7,-8 -14,-7 -26,-7 -19,0 -85,-1 -95,2 -5,12 -2,90 -2,111l0 141c0,12 -2,16 5,24l20 23c2,3 3,5 6,7l26 31c4,5 20,25 26,28 2,-6 1,-115 1,-130 0,-19 -1,-119 2,-131 4,1 7,4 9,7 3,4 5,5 8,9l15 18c63,67 124,144 184,214z"/>
  </g>
 </g>
</svg>
